<svg xmlns="http://www.w3.org/2000/svg" version="1.1" xmlns:xlink="http://www.w3.org/1999/xlink" xmlns:svgjs="http://svgjs.dev/svgjs" viewBox="0 0 800 800" opacity="0.62"><defs><linearGradient x1="50%" y1="0%" x2="50%" y2="100%" id="gggyrate-grad"><stop stop-color="hsl(184, 74%, 44%)" stop-opacity="1" offset="0%"></stop><stop stop-color="hsl(332, 87%, 70%)" stop-opacity="1" offset="100%"></stop></linearGradient></defs><g stroke-width="5" stroke="url(#gggyrate-grad)" fill="none"><path d="M378.8305501649852 94.67894478340372C391.93022460716975 87.11720640145754 408.0698364279865 87.11720640145754 421.16951087017105 94.681061731439L653.8305677373079 229.0077654127465C666.9302421794923 236.5695037946927 675.0000480899007 250.54771167150977 675.0000480899007 265.67330538343754V534.3267127460525C675.0000480899007 549.4523064579803 666.9302421794923 563.4305143347974 653.8305677373079 570.9943696647788L421.16951087017105 705.3210733460862C408.0698364279865 712.8828117280324 391.93022460716975 712.8828117280324 378.8305501649852 705.3189563980511L146.16949329784848 570.9922527167435C133.06981885566398 563.4305143347974 125.00001294525555 549.4523064579803 125.00001294525555 534.3267127460525V265.67330538343754C125.00001294525555 250.54771167150977 133.06981885566398 236.5695037946927 146.16949329784848 229.00564846471133L378.8305501649852 94.67894478340372Z " transform="rotate(0, 400, 400)" opacity="0.05"></path><path d="M379.79279927192124 108.55715722644322C392.2970339667337 101.33913422549463 407.70302706842244 101.33913422549463 420.207261763235 108.55917794956781L642.2928160455019 236.78012237263408C654.7970507403143 243.9981453735827 662.5000472911588 257.34098016508995 662.5000472911588 271.7790468901119V528.2209357362444C662.5000472911588 542.6590024612663 654.7970507403143 556.0018372527736 642.2928160455019 563.2218809768467L420.207261763235 691.442825399913C407.70302706842244 698.6608484008616 392.2970339667337 698.6608484008616 379.79279927192124 691.4408046767884L157.70724498965433 563.2198602537221C145.20301029484193 556.0018372527736 137.5000137439975 542.6590024612663 137.5000137439975 528.2209357362444V271.7790468901119C137.5000137439975 257.34098016508995 145.20301029484193 243.9981453735827 157.70724498965433 236.7781016495096L379.79279927192124 108.55715722644322Z " transform="rotate(0, 400, 400)" opacity="0.10"></path><path d="M380.7550331200682 122.4354001870609C392.6638280675087 115.56109256710982 407.33620245006944 115.56109256710982 419.2449973975099 122.4373246852748L630.755049094907 244.5525098500998C642.6638440423474 251.42681747005088 650.0000312336277 264.13427917624824 650.0000312336277 277.88481891436436V522.1151892440143C650.0000312336277 535.8657289821305 642.6638440423474 548.5731906883278 630.755049094907 555.4494228064927L419.2449973975099 677.5646079713177C407.33620245006944 684.4389155912689 392.6638280675087 684.4389155912689 380.7550331200682 677.5626834731039L169.24498142267117 555.4474983082789C157.33618647523076 548.5731906883278 149.9999992839504 535.8657289821305 149.9999992839504 522.1151892440143V277.88481891436436C149.9999992839504 264.13427917624824 157.33618647523076 251.42681747005088 169.24498142267117 244.550585351886L380.7550331200682 122.4354001870609Z " transform="rotate(0, 400, 400)" opacity="0.14"></path><path d="M381.7172669682152 136.31361263010047C393.0306221682836 129.78302039114692 406.96937783171643 129.78302039114692 418.2827330317848 136.3154409034036L619.217282144312 252.32486680998738C630.5306373443805 258.85545904894093 637.5000151760967 270.9275476698284 637.5000151760967 283.9905604210387V516.0094122342064C637.5000151760967 529.0724249854165 630.5306373443805 541.1445136063041 619.217282144312 547.6769341185607L418.2827330317848 663.6863600251445C406.96937783171643 670.216952264098 393.0306221682836 670.216952264098 381.7172669682152 663.6845317518414L180.78271785568802 547.6751058452576C169.46936265561965 541.1445136063041 162.49998482390328 529.0724249854165 162.49998482390328 516.0094122342064V283.9905604210387C162.49998482390328 270.9275476698284 169.46936265561965 258.85545904894093 180.78271785568802 252.3230385366843L381.7172669682152 136.31361263010047Z " transform="rotate(0, 400, 400)" opacity="0.19"></path><path d="M382.67951607515124 150.1918555907181C393.39743152784763 144.00497873276214 406.60256847215237 144.00497873276214 417.32048392484876 150.1935876391106L607.6795304525061 260.0972542874531C618.3974459052024 266.2841311454091 625.0000143773548 277.7208466809867 625.0000143773548 290.0963324452912V509.9036657419763C625.0000143773548 522.2791515062808 618.3974459052024 533.7158670418584 607.6795304525061 539.9044759482067L417.32048392484876 649.8081425965493C406.60256847215237 655.9950194545054 393.39743152784763 655.9950194545054 382.67951607515124 649.8064105481569L192.32046954749393 539.9027438998144C181.60255409479754 533.7158670418584 174.99998562264517 522.2791515062808 174.99998562264517 509.9036657419763V290.0963324452912C174.99998562264517 277.7208466809867 181.60255409479754 266.2841311454091 192.32046954749393 260.0955222390607L382.67951607515124 150.1918555907181Z " transform="rotate(0, 400, 400)" opacity="0.23"></path><path d="M383.6417651820873 164.0700832925467C393.7642408874117 158.22692181558827 406.2357591125883 158.22692181558827 416.3582348179127 164.07171911602848L596.1417787607002 267.86962650612975C606.2642544660246 273.7127879830882 612.5000135786129 284.51413043335594 612.5000135786129 296.2020892107546V503.79790399095714C612.5000135786129 515.4858627683559 606.2642544660246 526.2872052186235 596.1417787607002 532.1320025190637L416.3582348179127 635.9299099091651C406.2357591125883 641.7730713861234 393.7642408874117 641.7730713861234 383.6417651820873 635.9282740856834L203.85822123929978 532.1303666955821C193.73574553397543 526.2872052186235 187.49998642138712 515.4858627683559 187.49998642138712 503.79790399095714V296.2020892107546C187.49998642138712 284.51413043335594 193.73574553397543 273.7127879830882 203.85822123929978 267.86799068264804L383.6417651820873 164.0700832925467Z " transform="rotate(0, 400, 400)" opacity="0.28"></path><path d="M384.6040142890233 177.94831099437528C394.1310502469757 172.44886489841443 405.8689497530243 172.44886489841443 415.3959857109767 177.9498505929464L584.6040270688943 275.6419987248064C594.1310630268466 281.1414448207673 600.000012779871 291.3074141857252 600.000012779871 302.30784597621806V497.6921422399381C600.000012779871 508.69257403043093 594.1310630268466 518.8585433953889 584.6040270688943 524.3595290899208L415.3959857109767 622.0516772217808C405.8689497530243 627.5511233177417 394.1310502469757 627.5511233177417 384.6040142890233 622.0501376232097L215.3959729311057 524.3579894913497C205.86893697315338 518.8585433953889 199.99998722012907 508.69257403043093 199.99998722012907 497.6921422399381V302.30784597621806C199.99998722012907 291.3074141857252 205.86893697315338 281.1414448207673 215.3959729311057 275.6404591262354L384.6040142890233 177.94831099437528Z " transform="rotate(0, 400, 400)" opacity="0.32"></path><path d="M385.56626339595937 191.82655395499296C394.4978596065397 186.67082324002965 405.5021403934603 186.67082324002965 414.43373660404063 191.82799732865334L573.0662753770885 283.4143862022721C581.9978715876687 288.57011691723545 587.5000119811291 298.1007131968835 587.5000119811291 308.41361800047054V491.58639574770814C587.5000119811291 501.89930055129514 581.9978715876687 511.4298968309431 573.0662753770885 516.5870709195668L414.43373660404063 608.1734597931857C405.5021403934603 613.3291905081489 394.4978596065397 613.3291905081489 385.56626339595937 608.1720164195252L226.9337246229116 516.5856275459064C218.00212841233127 511.4298968309431 212.49998801887097 501.89930055129514 212.49998801887097 491.58639574770814V308.41361800047054C212.49998801887097 298.1007131968835 218.00212841233127 288.57011691723545 226.9337246229116 283.4129428286118L385.56626339595937 191.82655395499296Z " transform="rotate(0, 400, 400)" opacity="0.37"></path><path d="M386.5285125028954 205.7047969156106C394.86466896610375 200.89278158164484 405.13533103389625 200.89278158164484 413.4714874971046 205.70614406436033L561.5285236852825 291.1867736797378C569.8646801484908 295.9987890137036 575.0000111823871 304.8940122080418 575.0000111823871 314.519390024723V485.48064925547806C575.0000111823871 495.10602707215935 569.8646801484908 504.00125026649744 561.5285236852825 508.814612749213L413.4714874971046 594.2952423645904C405.13533103389625 599.1072576985562 394.86466896610375 599.1072576985562 386.5285125028954 594.2938952158407L238.4714763147175 508.8132656004632C230.13531985150922 504.00125026649744 224.99998881761292 495.10602707215935 224.99998881761292 485.48064925547806V314.519390024723C224.99998881761292 304.8940122080418 230.13531985150922 295.9987890137036 238.4714763147175 291.18542653098814L386.5285125028954 205.7047969156106Z " transform="rotate(0, 400, 400)" opacity="0.41"></path><path d="M387.49076160983145 219.58299409986108C395.23147832566775 215.11469414689287 404.76852167433225 215.11469414689287 412.50923839016855 219.58424502370008L549.9907719934766 298.95911538083635C557.7314887093129 303.42741533380456 562.5000103836451 311.6872654428329 562.5000103836451 320.6251162726083V479.3748569868808C562.5000103836451 488.31270781665637 557.7314887093129 496.5725579256846 549.9907719934766 501.04210880249184L412.50923839016855 580.416979159628C404.76852167433225 584.8852791125962 395.23147832566775 584.8852791125962 387.49076160983145 580.4157282357892L250.00922800652336 501.0408578786528C242.26851129068712 496.5725579256846 237.49998961635487 488.31270781665637 237.49998961635487 479.3748569868808V320.6251162726083C237.49998961635487 311.6872654428329 242.26851129068712 303.42741533380456 250.00922800652336 298.9578644569974L387.49076160983145 219.58299409986108Z " transform="rotate(0, 400, 400)" opacity="0.46"></path><path d="M388.4530107167675 233.46125231926777C395.59828768523175 229.33666774729716 404.40171231476825 229.33666774729716 411.5469892832325 233.46240701819613L538.4530203016707 306.7315181170911C545.5982972701349 310.8561026890618 550.0000095849032 318.48057971278024 550.0000095849032 326.7309035556499V473.2691257534399C550.0000095849032 481.5194495963096 545.5982972701349 489.14392662002797 538.4530203016707 493.26966589092694L411.5469892832325 566.538776989822C404.40171231476825 570.6633615617925 395.59828768523175 570.6633615617925 388.4530107167675 566.5376222908938L261.54697969832927 493.26851119199864C254.401702729865 489.14392662002797 249.99999041509682 481.5194495963096 249.99999041509682 473.2691257534399V326.7309035556499C249.99999041509682 318.48057971278024 254.401702729865 310.8561026890618 261.54697969832927 306.7303634181629L388.4530107167675 233.46125231926777Z " transform="rotate(0, 400, 400)" opacity="0.50"></path><path d="M389.41525982370354 247.33949527988545C395.9650970447958 243.55862608891238 404.0349029552042 243.55862608891238 410.58474017629646 247.3405537539031L526.9152686098648 314.50390559455684C533.4651058309571 318.28477478553 537.5000087861613 325.2738787239385 537.5000087861613 332.83667557990236V467.16337926120985C537.5000087861613 474.72617611717374 533.4651058309571 481.7152800555823 526.9152686098648 485.497207720573L410.58474017629646 552.6605595612267C404.0349029552042 556.4414287521997 395.9650970447958 556.4414287521997 389.41525982370354 552.6595010872092L273.0847313901352 485.4961492465553C266.53489416904296 481.7152800555823 262.4999912138387 474.72617611717374 262.4999912138387 467.16337926120985V332.83667557990236C262.4999912138387 325.2738787239385 266.53489416904296 318.28477478553 273.0847313901352 314.5028471205393L389.41525982370354 247.33949527988545Z " transform="rotate(0, 400, 400)" opacity="0.55"></path><path d="M390.3775089306396 261.21770772292496C396.3319064043598 257.7805539129495 403.6680935956402 257.7805539129495 409.6224910693604 261.21866997203193L515.377516918059 322.27626255444443C521.3319143917792 325.71341636441997 525.0000079874194 332.06714721751865 525.0000079874194 338.9424170865767V461.0576022514017C525.0000079874194 467.93287212045976 521.3319143917792 474.28660297355844 515.377516918059 477.7247190326409L409.6224910693604 538.7823116150535C403.6680935956402 542.2194654250291 396.3319064043598 542.2194654250291 390.3775089306396 538.7813493659464L284.6224830819411 477.723756783534C278.66808560822085 474.28660297355844 274.99999201258066 467.93287212045976 274.99999201258066 461.0576022514017V338.9424170865767C274.99999201258066 332.06714721751865 278.66808560822085 325.71341636441997 284.6224830819411 322.2753003053375L390.3775089306396 261.21770772292496Z " transform="rotate(0, 400, 400)" opacity="0.59"></path><path d="M391.3397580375756 275.09592779535905C396.6987157639238 272.00248936638104 403.3012842360762 272.00248936638104 408.6602419624244 275.0967938195553L503.83976522625306 330.04862714372655C509.1987229526012 333.14206557270455 512.5000071886774 338.86042334049336 512.5000071886774 345.0481662226456V454.95183287098814C512.5000071886774 461.1395757531404 509.1987229526012 466.8579335209292 503.83976522625306 469.95223797410335L408.6602419624244 524.9040712982746C403.3012842360762 527.9975097272527 396.6987157639238 527.9975097272527 391.3397580375756 524.9032052740785L296.16023477374694 469.9513719499072C290.80127704739874 466.8579335209292 287.4999928113226 461.1395757531404 287.4999928113226 454.95183287098814V345.0481662226456C287.4999928113226 338.86042334049336 290.80127704739874 333.14206557270455 296.16023477374694 330.0477611195303L391.3397580375756 275.09592779535905Z " transform="rotate(0, 400, 400)" opacity="0.64"></path><path d="M392.30200714451166 288.97415549718767C397.0655251234879 286.22443244920726 402.9344748765121 286.22443244920726 407.69799285548834 288.9749252964732L492.30201353444716 337.8209993624032C497.0655315134233 340.57072241038367 500.0000063899355 345.6537070928626 500.0000063899355 351.153922988109V448.84607111996905C500.0000063899355 454.34628701521547 497.0655315134233 459.42927169769445 492.30201353444716 462.1797645449604L407.69799285548834 511.0258386108904C402.9344748765121 513.7755616588709 397.0655251234879 513.7755616588709 392.30200714451166 511.02506881160485L307.69798646555284 462.17899474567486C302.9344684865767 459.42927169769445 299.9999936100645 454.34628701521547 299.9999936100645 448.84607111996905V351.153922988109C299.9999936100645 345.6537070928626 302.9344684865767 340.57072241038367 307.69798646555284 337.82022956311766L392.30200714451166 288.97415549718767Z " transform="rotate(0, 400, 400)" opacity="0.68"></path><path d="M393.2642562514477 302.85239082841076C397.4323344830519 300.4463831614279 402.5676655169481 300.4463831614279 406.7357437485523 302.85306440278566L480.76426184264125 345.5933792104744C484.9323400742454 347.99938687745725 487.50000559119354 352.44699847462635 487.50000559119354 357.259687382967V442.7403169983445C487.50000559119354 447.55300590668514 484.9323400742454 452.0006175038542 480.76426184264125 454.40729874521196L406.7357437485523 497.1476135529007C402.5676655169481 499.55362121988355 397.4323344830519 499.55362121988355 393.2642562514477 497.14693997852584L319.23573815735875 454.40662517083706C315.0676599257546 452.0006175038542 312.49999440880646 447.55300590668514 312.49999440880646 442.7403169983445V357.259687382967C312.49999440880646 352.44699847462635 315.0676599257546 347.99938687745725 319.23573815735875 345.59270563609954L393.2642562514477 302.85239082841076Z " transform="rotate(0, 400, 400)" opacity="0.73"></path><path d="M394.22650535838375 316.7306337890284C397.7991438426159 314.6683415030431 402.2008561573841 314.6683415030431 405.77349464161625 316.7312111384926L469.22651015083534 353.3657666879401C472.79914863506747 355.42805897392543 475.0000047924516 359.24029748578465 475.0000047924516 363.3654594072195V436.63457050611447C475.0000047924516 440.75973242754935 472.79914863506747 444.5719709394085 469.22651015083534 446.634840574858L405.77349464161625 483.26939612430556C402.2008561573841 485.3316884102908 397.7991438426159 485.3316884102908 394.22650535838375 483.2688187748414L330.77348984916466 446.63426322539385C327.20085136493253 444.5719709394085 324.9999952075484 440.75973242754935 324.9999952075484 436.63457050611447V363.3654594072195C324.9999952075484 359.24029748578465 327.20085136493253 355.42805897392543 330.77348984916466 353.36518933847594L394.22650535838375 316.7306337890284Z " transform="rotate(0, 400, 400)" opacity="0.77"></path><path d="M395.1887544653198 330.60885386146253C398.1659532021799 328.89027695647474 401.83404679782006 328.89027695647474 404.8112455346802 330.60933498601594L457.6887584590295 361.1381312772222C460.6659571958896 362.85670818221 462.5000039937097 366.0335736087593 462.5000039937097 369.47120854328836V430.52880112570085C462.5000039937097 433.96643606022985 460.6659571958896 437.14330148677925 457.6887584590295 438.86235951632045L404.8112455346802 469.39115580752673C401.83404679782006 471.10973271251453 398.1659532021799 471.10973271251453 395.1887544653198 469.3906746829732L342.3112415409705 438.861878391767C339.3340428041104 437.14330148677925 337.4999960062903 433.96643606022985 337.4999960062903 430.52880112570085V369.47120854328836C337.4999960062903 366.0335736087593 339.3340428041104 362.85670818221 342.3112415409705 361.13765015266875L395.1887544653198 330.60885386146253Z " transform="rotate(0, 400, 400)" opacity="0.82"></path><path d="M396.15100357225583 344.48706630450204C398.53276256174394 343.1122047805118 401.46723743825606 343.1122047805118 403.84899642774417 344.4874512041448L446.1510067672236 368.9104882371098C448.5327657567117 370.2853497611 450.00000319496775 372.82684210233947 450.00000319496775 375.5769500499627V424.42302411589276C450.00000319496775 427.17313206351594 448.5327657567117 429.71462440475545 446.1510067672236 431.08987082838837L403.84899642774417 455.51290786135337C401.46723743825606 456.88776938534363 398.53276256174394 456.88776938534363 396.15100357225583 455.5125229617106L353.8489932327764 431.0894859287456C351.4672342432883 429.71462440475545 349.99999680503225 427.17313206351594 349.99999680503225 424.42302411589276V375.5769500499627C349.99999680503225 372.82684210233947 351.4672342432883 370.2853497611 353.8489932327764 368.91010333746704L396.15100357225583 344.48706630450204Z " transform="rotate(0, 400, 400)" opacity="0.86"></path><path d="M397.1132526791919 358.36530926511966C398.89957192130794 357.33416312212705 401.10042807869206 357.33416312212705 402.8867473208081 358.3655979398518L434.61325507541767 376.6828757145755C436.39957431753373 377.7140218575682 437.5000023962258 379.62014111349777 437.5000023962258 381.6827220742152V418.31727762366273C437.5000023962258 420.37985858438014 436.39957431753373 422.2859778403097 434.61325507541767 423.31741265803447L402.8867473208081 441.63469043275825C401.10042807869206 442.66583657575086 398.89957192130794 442.66583657575086 397.1132526791919 441.6344017580262L365.38674492458233 423.3171239833024C363.60042568246627 422.2859778403097 362.4999976037742 420.37985858438014 362.4999976037742 418.31727762366273V381.6827220742152C362.4999976037742 379.62014111349777 363.60042568246627 377.7140218575682 365.38674492458233 376.68258703984344L397.1132526791919 358.36530926511966Z " transform="rotate(0, 400, 400)" opacity="0.91"></path><path d="M398.0755017861279 372.2435369669483C399.26638128087194 371.55610620495315 400.73361871912806 371.55610620495315 401.9244982138721 372.24372941676967L423.0755033836118 384.45524793325217C424.26638287835584 385.1426786952473 425.0000015974839 386.413424865867 425.0000015974839 387.78847883967865V412.21151587264364C425.0000015974839 413.58656984645523 424.26638287835584 414.857316017075 423.0755033836118 415.54493922889145L401.9244982138721 427.75645774537395C400.73361871912806 428.4438885073691 399.26638128087194 428.4438885073691 398.0755017861279 427.75626529555257L376.92449661638824 415.54474677907007C375.73361712164416 414.857316017075 374.99999840251616 413.58656984645523 374.99999840251616 412.21151587264364V387.78847883967865C374.99999840251616 386.413424865867 375.73361712164416 385.1426786952473 376.92449661638824 384.4550554834308L398.0755017861279 372.2435369669483Z " transform="rotate(0, 400, 400)" opacity="0.95"></path><path d="M399.03775089306396 386.1217646687769C399.633190640436 385.7780492877793 400.366809359564 385.7780492877793 400.96224910693604 386.12186089368754L411.5377516918059 392.2276201519288C412.1331914391779 392.57133553292635 412.50000079874195 393.20670861823623 412.50000079874195 393.89423560514206V406.10575412162456C412.50000079874195 406.7932811085304 412.1331914391779 407.4286541938402 411.5377516918059 407.7724657997485L400.96224910693604 413.8782250579897C400.366809359564 414.2219404389873 399.633190640436 414.2219404389873 399.03775089306396 413.878128833079L388.4622483081941 407.7723695748378C387.8668085608221 407.4286541938402 387.49999920125805 406.7932811085304 387.49999920125805 406.10575412162456V393.89423560514206C387.49999920125805 393.20670861823623 387.8668085608221 392.57133553292635 388.4622483081941 392.2275239270181L399.03775089306396 386.1217646687769Z " transform="rotate(0, 400, 400)" opacity="1.00"></path></g></svg>